<svg width="60" height="60" viewBox="0 0 60 60" fill="none" xmlns="http://www.w3.org/2000/svg">
<path d="M30.8592 51.5569L43.3835 30.5223C43.8212 29.787 43.1934 28.8773 42.3507 29.0259L35.4383 30.2441C34.826 30.3521 34.2647 29.881 34.2647 29.2593L34.2647 8C34.2647 7.44772 33.817 7 33.2647 7L26.7353 7C26.183 7 25.7353 7.44772 25.7353 8L25.7353 29.2593C25.7353 29.881 25.174 30.3521 24.5617 30.2441L17.6493 29.0259C16.8066 28.8773 16.1788 29.787 16.6165 30.5223L29.1408 51.5569C29.5285 52.2081 30.4715 52.2081 30.8592 51.5569Z" fill="#BFFFFF" stroke="#409DEF" stroke-width="3"/>
</svg>
