<svg width="60" height="60" viewBox="0 0 60 60" fill="none" xmlns="http://www.w3.org/2000/svg">
<path d="M14.1494 15.3645L20.1672 39.0942C20.3775 39.9237 21.4647 40.1229 21.9556 39.422L25.9819 33.6728C26.3386 33.1635 27.0685 33.0997 27.5081 33.5393L42.5408 48.5719C42.9313 48.9624 43.5644 48.9624 43.955 48.5719L48.572 43.9549C48.9625 43.5644 48.9625 42.9312 48.572 42.5407L33.5393 27.5081C33.0997 27.0685 33.1636 26.3385 33.6728 25.9819L39.4221 21.9555C40.123 21.4647 39.9237 20.3775 39.0942 20.1671L15.3645 14.1494C14.6299 13.9631 13.9631 14.6298 14.1494 15.3645Z" fill="#BFFFFF" stroke="#409DEF" stroke-width="3"/>
</svg>
