<svg width="60" height="60" viewBox="0 0 60 60" fill="none" xmlns="http://www.w3.org/2000/svg">
<path d="M51.5569 29.1408L30.5223 16.6165C29.787 16.1788 28.8773 16.8066 29.0259 17.6493L30.2441 24.5617C30.3521 25.174 29.881 25.7353 29.2593 25.7353L8 25.7353C7.44772 25.7353 7 26.183 7 26.7353L7 33.2647C7 33.817 7.44771 34.2647 8 34.2647L29.2593 34.2647C29.881 34.2647 30.3521 34.826 30.2441 35.4383L29.0259 42.3507C28.8773 43.1934 29.787 43.8212 30.5223 43.3835L51.5569 30.8592C52.2081 30.4715 52.2081 29.5285 51.5569 29.1408Z" fill="#BFFFFF" stroke="#409DEF" stroke-width="3"/>
</svg>
