<svg width="60" height="60" viewBox="0 0 60 60" fill="none" xmlns="http://www.w3.org/2000/svg">
<path d="M8.44308 30.8592L29.4777 43.3835C30.213 43.8212 31.1227 43.1934 30.9741 42.3507L29.7559 35.4383C29.6479 34.826 30.119 34.2647 30.7407 34.2647L52 34.2647C52.5523 34.2647 53 33.817 53 33.2647L53 26.7353C53 26.183 52.5523 25.7353 52 25.7353L30.7407 25.7353C30.119 25.7353 29.6479 25.174 29.7559 24.5617L30.9741 17.6493C31.1227 16.8066 30.213 16.1788 29.4777 16.6165L8.44308 29.1408C7.79188 29.5285 7.79188 30.4715 8.44308 30.8592Z" fill="#BFFFFF" stroke="#409DEF" stroke-width="3"/>
</svg>
