<svg width="60" height="60" viewBox="0 0 60 60" fill="none" xmlns="http://www.w3.org/2000/svg">
<path d="M44.6355 14.1494L20.9058 20.1671C20.0763 20.3775 19.877 21.4647 20.5779 21.9556L26.3272 25.9819C26.8364 26.3386 26.9003 27.0685 26.4607 27.5081L11.428 42.5407C11.0375 42.9313 11.0375 43.5644 11.428 43.955L16.045 48.5719C16.4356 48.9625 17.0687 48.9625 17.4593 48.5719L32.4919 33.5393C32.9315 33.0997 33.6614 33.1636 34.0181 33.6728L38.0444 39.4221C38.5353 40.123 39.6225 39.9237 39.8329 39.0942L45.8506 15.3645C46.0369 14.6299 45.3701 13.9631 44.6355 14.1494Z" fill="#BFFFFF" stroke="#409DEF" stroke-width="3"/>
</svg>
