<svg width="60" height="60" viewBox="0 0 60 60" fill="none" xmlns="http://www.w3.org/2000/svg">
<path d="M45.8506 44.6355L39.8329 20.9058C39.6225 20.0763 38.5353 19.877 38.0444 20.5779L34.0181 26.3272C33.6614 26.8364 32.9315 26.9003 32.4919 26.4607L17.4593 11.428C17.0687 11.0375 16.4356 11.0375 16.045 11.428L11.4281 16.045C11.0375 16.4356 11.0375 17.0687 11.4281 17.4593L26.4607 32.4919C26.9003 32.9315 26.8364 33.6614 26.3272 34.0181L20.5779 38.0444C19.877 38.5353 20.0763 39.6225 20.9058 39.8329L44.6355 45.8506C45.3701 46.0369 46.0369 45.3701 45.8506 44.6355Z" fill="#BFFFFF" stroke="#409DEF" stroke-width="3"/>
</svg>
