<svg width="60" height="60" viewBox="0 0 60 60" fill="none" xmlns="http://www.w3.org/2000/svg">
<path d="M15.3645 45.8506L39.0942 39.8328C39.9237 39.6225 40.123 38.5353 39.4221 38.0444L33.6728 34.0181C33.1636 33.6614 33.0997 32.9315 33.5393 32.4918L48.572 17.4592C48.9625 17.0687 48.9625 16.4355 48.572 16.045L43.955 11.428C43.5644 11.0375 42.9313 11.0375 42.5407 11.428L27.5081 26.4606C27.0685 26.9003 26.3386 26.8364 25.9819 26.3272L21.9556 20.5779C21.4647 19.877 20.3775 20.0763 20.1671 20.9057L14.1494 44.6355C13.9631 45.3701 14.6299 46.0369 15.3645 45.8506Z" fill="#BFFFFF" stroke="#409DEF" stroke-width="3"/>
</svg>
