<svg width="60" height="60" viewBox="0 0 60 60" fill="none" xmlns="http://www.w3.org/2000/svg">
<rect x="13.5" y="7.5" width="32" height="45" rx="4.5" fill="#EAE6DA" stroke="#998D86" stroke-width="3"/>
<rect x="18" y="13" width="23" height="9" rx="2" fill="#353234"/>
<rect x="18" y="25" width="5" height="5" rx="1.5" fill="#998D86"/>
<rect x="24" y="25" width="5" height="5" rx="1.5" fill="#998D86"/>
<rect x="30" y="25" width="5" height="5" rx="1.5" fill="#998D86"/>
<rect x="36" y="25" width="5" height="5" rx="1.5" fill="#F66D1E"/>
<rect x="18" y="31" width="5" height="5" rx="1.5" fill="#998D86"/>
<rect x="24" y="31" width="5" height="5" rx="1.5" fill="#998D86"/>
<rect x="30" y="31" width="5" height="5" rx="1.5" fill="#998D86"/>
<rect x="36" y="31" width="5" height="5" rx="1.5" fill="#998D86"/>
<rect x="18" y="37" width="5" height="5" rx="1.5" fill="#998D86"/>
<rect x="24" y="37" width="5" height="5" rx="1.5" fill="#998D86"/>
<rect x="30" y="37" width="5" height="5" rx="1.5" fill="#998D86"/>
<rect x="36" y="37" width="5" height="11" rx="1.5" fill="#409DEF"/>
<rect x="18" y="43" width="5" height="5" rx="1.5" fill="#998D86"/>
<rect x="24" y="43" width="5" height="5" rx="1.5" fill="#998D86"/>
<rect x="30" y="43" width="5" height="5" rx="1.5" fill="#998D86"/>
</svg>
