<svg width="60" height="60" viewBox="0 0 60 60" fill="none" xmlns="http://www.w3.org/2000/svg">
<circle cx="30" cy="30" r="23" fill="#409DEF" stroke="#3257BE" stroke-width="4"/>
<path d="M27.6903 41V25.7273H31.9261V41H27.6903ZM29.8182 23.7585C29.1884 23.7585 28.6482 23.5497 28.1974 23.1321C27.7533 22.7079 27.5312 22.2008 27.5312 21.6108C27.5312 21.0275 27.7533 20.527 28.1974 20.1094C28.6482 19.6851 29.1884 19.473 29.8182 19.473C30.4479 19.473 30.9848 19.6851 31.429 20.1094C31.8797 20.527 32.1051 21.0275 32.1051 21.6108C32.1051 22.2008 31.8797 22.7079 31.429 23.1321C30.9848 23.5497 30.4479 23.7585 29.8182 23.7585Z" fill="white"/>
</svg>
