<svg width="60" height="60" viewBox="0 0 60 60" fill="none" xmlns="http://www.w3.org/2000/svg">
<mask id="mask0_136_125" style="mask-type:alpha" maskUnits="userSpaceOnUse" x="8" y="13" width="48" height="34">
<path d="M8 35.765V44C8 45.6569 9.34315 47 11 47H42.2191C43.3169 47 44.3271 46.4003 44.8528 45.4366L55.6337 25.6716C55.8741 25.2309 56 24.737 56 24.235V16C56 14.3431 54.6569 13 53 13H21.7809C20.6831 13 19.6729 13.5997 19.1472 14.5634L8.36631 34.3284C8.12595 34.7691 8 35.263 8 35.765Z" fill="#D9D9D9"/>
</mask>
<g mask="url(#mask0_136_125)">
<path d="M20 13H56L44 35H8L20 13Z" fill="#EFAF79"/>
<path d="M8 35H44V47H8V35Z" fill="#CB734D"/>
<path d="M44 34.8571V47L56 25.1429V13L44 34.8571Z" fill="#8D4131"/>
</g>
<path d="M21.4265 17.0195C21.7808 16.3897 22.4471 16 23.1697 16H47.5803C49.11 16 50.0734 17.6473 49.3235 18.9805L42.5735 30.9805C42.2192 31.6103 41.5529 32 40.8303 32H16.4197C14.89 32 13.9266 30.3527 14.6765 29.0195L21.4265 17.0195Z" fill="#CB734D"/>
<mask id="mask1_136_125" style="mask-type:alpha" maskUnits="userSpaceOnUse" x="13" y="16" width="38" height="16">
<path d="M22 16H51L42 32H13L22 16Z" fill="#CB734D"/>
</mask>
<g mask="url(#mask1_136_125)">
<path d="M24.1398 21.5292C24.6712 20.5846 25.6707 20 26.7545 20H54L45 36H16L24.1398 21.5292Z" fill="#FBC800"/>
</g>
</svg>
