<svg width="60" height="60" viewBox="0 0 60 60" fill="none" xmlns="http://www.w3.org/2000/svg">
<mask id="path-1-inside-1_136_79" fill="white">
<path fill-rule="evenodd" clip-rule="evenodd" d="M27 9C25.8954 9 25 9.89543 25 11V15.8535C23.2444 16.474 21.6388 17.4121 20.2523 18.5987L16.0455 16.1699C15.0889 15.6176 13.8658 15.9454 13.3135 16.9019L10.3135 22.0981C9.76118 23.0547 10.0889 24.2779 11.0455 24.8301L15.2501 27.2577C15.0858 28.1468 15 29.0634 15 30C15 30.9367 15.0859 31.8533 15.2501 32.7424L11.0455 35.1699C10.0889 35.7222 9.76118 36.9454 10.3135 37.9019L13.3135 43.0981C13.8658 44.0547 15.0889 44.3824 16.0455 43.8301L20.2523 41.4014C21.6389 42.5879 23.2444 43.526 25 44.1465V49C25 50.1046 25.8954 51 27 51H33C34.1046 51 35 50.1046 35 49V44.1465C36.7556 43.526 38.3611 42.5879 39.7477 41.4014L43.9545 43.8301C44.9111 44.3824 46.1342 44.0547 46.6865 43.0981L49.6865 37.9019C50.2388 36.9454 49.9111 35.7222 48.9545 35.1699L44.7499 32.7424C44.9141 31.8533 45 30.9367 45 30C45 29.0634 44.9141 28.1468 44.7499 27.2577L48.9545 24.8301C49.9111 24.2779 50.2388 23.0547 49.6865 22.0981L46.6865 16.9019C46.1342 15.9454 44.9111 15.6176 43.9545 16.1699L39.7477 18.5987C38.3612 17.4121 36.7556 16.474 35 15.8535V11C35 9.89543 34.1046 9 33 9H27ZM30 35C32.7614 35 35 32.7614 35 30C35 27.2386 32.7614 25 30 25C27.2386 25 25 27.2386 25 30C25 32.7614 27.2386 35 30 35Z"/>
</mask>
<path fill-rule="evenodd" clip-rule="evenodd" d="M27 9C25.8954 9 25 9.89543 25 11V15.8535C23.2444 16.474 21.6388 17.4121 20.2523 18.5987L16.0455 16.1699C15.0889 15.6176 13.8658 15.9454 13.3135 16.9019L10.3135 22.0981C9.76118 23.0547 10.0889 24.2779 11.0455 24.8301L15.2501 27.2577C15.0858 28.1468 15 29.0634 15 30C15 30.9367 15.0859 31.8533 15.2501 32.7424L11.0455 35.1699C10.0889 35.7222 9.76118 36.9454 10.3135 37.9019L13.3135 43.0981C13.8658 44.0547 15.0889 44.3824 16.0455 43.8301L20.2523 41.4014C21.6389 42.5879 23.2444 43.526 25 44.1465V49C25 50.1046 25.8954 51 27 51H33C34.1046 51 35 50.1046 35 49V44.1465C36.7556 43.526 38.3611 42.5879 39.7477 41.4014L43.9545 43.8301C44.9111 44.3824 46.1342 44.0547 46.6865 43.0981L49.6865 37.9019C50.2388 36.9454 49.9111 35.7222 48.9545 35.1699L44.7499 32.7424C44.9141 31.8533 45 30.9367 45 30C45 29.0634 44.9141 28.1468 44.7499 27.2577L48.9545 24.8301C49.9111 24.2779 50.2388 23.0547 49.6865 22.0981L46.6865 16.9019C46.1342 15.9454 44.9111 15.6176 43.9545 16.1699L39.7477 18.5987C38.3612 17.4121 36.7556 16.474 35 15.8535V11C35 9.89543 34.1046 9 33 9H27ZM30 35C32.7614 35 35 32.7614 35 30C35 27.2386 32.7614 25 30 25C27.2386 25 25 27.2386 25 30C25 32.7614 27.2386 35 30 35Z" fill="white"/>
<path d="M25 15.8535L25.6665 17.7392L27 17.2679V15.8535H25ZM20.2523 18.5987L19.2523 20.3307L20.4776 21.0382L21.5527 20.1182L20.2523 18.5987ZM16.0455 16.1699L17.0455 14.4378L17.0455 14.4378L16.0455 16.1699ZM13.3135 16.9019L15.0455 17.9019L15.0455 17.9019L13.3135 16.9019ZM10.3135 22.0981L12.0455 23.0981L12.0455 23.0981L10.3135 22.0981ZM11.0455 24.8301L10.0455 26.5622L10.0455 26.5622L11.0455 24.8301ZM15.2501 27.2577L17.2168 27.621L17.4735 26.2319L16.2501 25.5256L15.2501 27.2577ZM15.2501 32.7424L16.2501 34.4744L17.4735 33.7681L17.2168 32.379L15.2501 32.7424ZM11.0455 35.1699L12.0455 36.9019L12.0455 36.9019L11.0455 35.1699ZM10.3135 37.9019L12.0455 36.9019L12.0455 36.9019L10.3135 37.9019ZM13.3135 43.0981L11.5814 44.0981L11.5814 44.0981L13.3135 43.0981ZM16.0455 43.8301L17.0455 45.5622L17.0455 45.5622L16.0455 43.8301ZM20.2523 41.4014L21.5527 39.8818L20.4777 38.9618L19.2523 39.6693L20.2523 41.4014ZM25 44.1465H27V42.7321L25.6665 42.2608L25 44.1465ZM35 44.1465L34.3335 42.2608L33 42.7321V44.1465H35ZM39.7477 41.4014L40.7477 39.6693L39.5223 38.9618L38.4473 39.8818L39.7477 41.4014ZM43.9545 43.8301L42.9545 45.5622L42.9545 45.5622L43.9545 43.8301ZM46.6865 43.0981L44.9545 42.0981L44.9545 42.0981L46.6865 43.0981ZM49.6865 37.9019L51.4186 38.9019L51.4186 38.9019L49.6865 37.9019ZM48.9545 35.1699L47.9545 36.9019L47.9545 36.9019L48.9545 35.1699ZM44.7499 32.7424L42.7832 32.379L42.5265 33.7681L43.7499 34.4744L44.7499 32.7424ZM44.7499 27.2577L43.7499 25.5256L42.5265 26.2319L42.7832 27.621L44.7499 27.2577ZM48.9545 24.8301L47.9545 23.0981L47.9545 23.0981L48.9545 24.8301ZM49.6865 22.0981L51.4186 21.0981L51.4186 21.0981L49.6865 22.0981ZM46.6865 16.9019L44.9545 17.9019L44.9545 17.9019L46.6865 16.9019ZM43.9545 16.1699L44.9545 17.9019L44.9545 17.9019L43.9545 16.1699ZM39.7477 18.5987L38.4473 20.1182L39.5224 21.0382L40.7477 20.3307L39.7477 18.5987ZM35 15.8535H33V17.2679L34.3335 17.7392L35 15.8535ZM27 11L27 11V7C24.7909 7 23 8.79086 23 11H27ZM27 15.8535V11H23V15.8535H27ZM21.5527 20.1182C22.7556 19.0888 24.147 18.2763 25.6665 17.7392L24.3335 13.9678C22.3419 14.6718 20.5221 15.7354 18.9519 17.0791L21.5527 20.1182ZM15.0455 17.9019L19.2523 20.3307L21.2523 16.8666L17.0455 14.4378L15.0455 17.9019ZM15.0455 17.9019L15.0455 17.9019L17.0455 14.4378C15.1323 13.3333 12.686 13.9888 11.5814 15.9019L15.0455 17.9019ZM12.0455 23.0981L15.0455 17.9019L11.5814 15.9019L8.58142 21.0981L12.0455 23.0981ZM12.0455 23.0981L12.0455 23.0981L8.58142 21.0981C7.47685 23.0113 8.13235 25.4576 10.0455 26.5622L12.0455 23.0981ZM16.2501 25.5256L12.0455 23.0981L10.0455 26.5622L14.2501 28.9897L16.2501 25.5256ZM17 30C17 29.1858 17.0746 28.3908 17.2168 27.621L13.2834 26.8943C13.0971 27.9027 13 28.9409 13 30H17ZM17.2168 32.379C17.0746 31.6092 17 30.8142 17 30H13C13 31.0591 13.0971 32.0973 13.2834 33.1057L17.2168 32.379ZM12.0455 36.9019L16.2501 34.4744L14.2501 31.0103L10.0455 33.4378L12.0455 36.9019ZM12.0455 36.9019L12.0455 36.9019L10.0455 33.4378C8.13235 34.5424 7.47685 36.9888 8.58142 38.9019L12.0455 36.9019ZM15.0455 42.0981L12.0455 36.9019L8.58142 38.9019L11.5814 44.0981L15.0455 42.0981ZM15.0455 42.0981L15.0455 42.0981L11.5814 44.0981C12.686 46.0113 15.1324 46.6668 17.0455 45.5622L15.0455 42.0981ZM19.2523 39.6693L15.0455 42.0981L17.0455 45.5622L21.2523 43.1334L19.2523 39.6693ZM25.6665 42.2608C24.147 41.7237 22.7556 40.9112 21.5527 39.8818L18.9519 42.9209C20.5222 44.2647 22.3419 45.3282 24.3335 46.0322L25.6665 42.2608ZM27 49V44.1465H23V49H27ZM27 49H27H23C23 51.2091 24.7909 53 27 53V49ZM33 49H27V53H33V49ZM33 49V53C35.2091 53 37 51.2091 37 49H33ZM33 44.1465V49H37V44.1465H33ZM38.4473 39.8818C37.2444 40.9112 35.853 41.7237 34.3335 42.2608L35.6665 46.0322C37.6581 45.3282 39.4778 44.2647 41.0481 42.9209L38.4473 39.8818ZM44.9545 42.0981L40.7477 39.6693L38.7477 43.1334L42.9545 45.5622L44.9545 42.0981ZM44.9545 42.0981L44.9545 42.0981L42.9545 45.5622C44.8677 46.6668 47.314 46.0113 48.4186 44.0981L44.9545 42.0981ZM47.9545 36.9019L44.9545 42.0981L48.4186 44.0981L51.4186 38.9019L47.9545 36.9019ZM47.9545 36.9019L47.9545 36.9019L51.4186 38.9019C52.5232 36.9888 51.8677 34.5424 49.9545 33.4378L47.9545 36.9019ZM43.7499 34.4744L47.9545 36.9019L49.9545 33.4378L45.7499 31.0103L43.7499 34.4744ZM43 30C43 30.8142 42.9254 31.6092 42.7832 32.379L46.7166 33.1057C46.9029 32.0973 47 31.0591 47 30H43ZM42.7832 27.621C42.9254 28.3908 43 29.1858 43 30H47C47 28.9409 46.9029 27.9027 46.7166 26.8943L42.7832 27.621ZM47.9545 23.0981L43.7499 25.5256L45.7499 28.9897L49.9545 26.5622L47.9545 23.0981ZM47.9545 23.0981L47.9545 23.0981L49.9545 26.5622C51.8677 25.4576 52.5232 23.0113 51.4186 21.0981L47.9545 23.0981ZM44.9545 17.9019L47.9545 23.0981L51.4186 21.0981L48.4186 15.9019L44.9545 17.9019ZM44.9545 17.9019L44.9545 17.9019L48.4186 15.9019C47.314 13.9888 44.8677 13.3333 42.9545 14.4378L44.9545 17.9019ZM40.7477 20.3307L44.9545 17.9019L42.9545 14.4378L38.7477 16.8666L40.7477 20.3307ZM34.3335 17.7392C35.853 18.2763 37.2445 19.0888 38.4473 20.1182L41.0481 17.0791C39.4779 15.7354 37.6581 14.6718 35.6665 13.9678L34.3335 17.7392ZM33 11V15.8535H37V11H33ZM33 11H37C37 8.79086 35.2091 7 33 7V11ZM27 11H33V7H27V11ZM33 30C33 31.6569 31.6569 33 30 33V37C33.866 37 37 33.866 37 30H33ZM30 27C31.6569 27 33 28.3431 33 30H37C37 26.134 33.866 23 30 23V27ZM27 30C27 28.3431 28.3431 27 30 27V23C26.134 23 23 26.134 23 30H27ZM30 33C28.3431 33 27 31.6569 27 30H23C23 33.866 26.134 37 30 37V33Z" fill="#998D86" mask="url(#path-1-inside-1_136_79)"/>
</svg>
