<svg width="60" height="60" viewBox="0 0 60 60" fill="none" xmlns="http://www.w3.org/2000/svg">
<rect x="7" y="7" width="46" height="46" rx="14" fill="#B44CEF" stroke="#652BBC" stroke-width="4"/>
<path d="M28.0455 35.1591V34.8636C28.053 33.4924 28.1818 32.4015 28.4318 31.5909C28.6894 30.7803 29.053 30.1288 29.5227 29.6364C29.9924 29.1364 30.5644 28.678 31.2386 28.2614C31.7008 27.9735 32.1136 27.6591 32.4773 27.3182C32.8485 26.9697 33.1402 26.5833 33.3523 26.1591C33.5644 25.7273 33.6705 25.2462 33.6705 24.7159C33.6705 24.1174 33.5303 23.5985 33.25 23.1591C32.9697 22.7197 32.5909 22.3788 32.1136 22.1364C31.6439 21.8939 31.1174 21.7727 30.5341 21.7727C29.9962 21.7727 29.4848 21.8902 29 22.125C28.5227 22.3523 28.125 22.7008 27.8068 23.1705C27.4962 23.6326 27.322 24.2197 27.2841 24.9318H23.2386C23.2765 23.4924 23.625 22.2879 24.2841 21.3182C24.9508 20.3485 25.8295 19.6212 26.9205 19.1364C28.0189 18.6515 29.2311 18.4091 30.5568 18.4091C32.0038 18.4091 33.2765 18.6629 34.375 19.1705C35.4811 19.678 36.3409 20.4015 36.9545 21.3409C37.5758 22.2727 37.8864 23.3788 37.8864 24.6591C37.8864 25.5227 37.7462 26.2955 37.4659 26.9773C37.1932 27.6591 36.803 28.2652 36.2955 28.7955C35.7879 29.3258 35.1856 29.7992 34.4886 30.2159C33.875 30.5947 33.3712 30.9886 32.9773 31.3977C32.5909 31.8068 32.303 32.2879 32.1136 32.8409C31.9318 33.3864 31.8371 34.0606 31.8295 34.8636V35.1591H28.0455ZM30.0227 42.25C29.3409 42.25 28.7538 42.0076 28.2614 41.5227C27.7689 41.0379 27.5227 40.447 27.5227 39.75C27.5227 39.0682 27.7689 38.4848 28.2614 38C28.7538 37.5152 29.3409 37.2727 30.0227 37.2727C30.697 37.2727 31.2803 37.5152 31.7727 38C32.2727 38.4848 32.5227 39.0682 32.5227 39.75C32.5227 40.2121 32.4053 40.6326 32.1705 41.0114C31.9432 41.3902 31.6402 41.6932 31.2614 41.9205C30.8902 42.1402 30.4773 42.25 30.0227 42.25Z" fill="white"/>
</svg>
